<svg width="247" height="247" viewBox="0 0 247 247" fill="none" xmlns="http://www.w3.org/2000/svg">
<mask id="path-1-inside-1_5_155" fill="white">
<path fill-rule="evenodd" clip-rule="evenodd" d="M38.8421 47.5089L114.384 15.7609C119.887 13.413 126.363 13.413 131.866 15.7609L207.408 47.5089C215.178 50.7755 220.25 58.1255 220.25 66.1901V114.169C220.25 170.826 178.81 223.807 123.125 236.669C67.44 223.807 26 170.826 26 114.169V66.1901C26 58.1255 31.0721 50.7755 38.8421 47.5089ZM127.254 124.276H123.125V107.454C125.759 107.647 128.31 109.113 129.681 111.853L130.584 113.657C132.614 117.714 130.846 122.319 127.254 124.276ZM162.896 124.276L132.644 71.8776C130.501 68.1661 126.867 66.1765 123.125 65.9088V34.4422L47.5833 66.1901V124.378H81.5481L65.2506 152.606C60.6318 160.606 66.4053 170.606 75.6429 170.606H83.3507C87.6379 170.606 91.5994 168.319 93.743 164.606L101.643 150.922C103.787 147.21 107.748 144.922 112.035 144.922H123.125V215.538C163.27 203.798 192.947 166.334 198.667 124.276H162.896ZM123.125 125.237H123.43C124.841 125.237 126.136 124.884 127.254 124.276H162.896L179.252 152.606C183.871 160.606 178.097 170.606 168.86 170.606H161.67C157.383 170.606 153.421 168.319 151.278 164.606L143.378 150.922C141.234 147.21 137.273 144.922 132.985 144.922H123.125V125.237ZM123.125 125.237H121.624C120.293 125.237 119.066 124.924 117.994 124.378H123.125V125.237ZM117.994 124.378C114.272 122.483 112.403 117.786 114.469 113.657L115.372 111.853C116.95 108.699 120.093 107.233 123.125 107.454V65.9088C118.802 65.5995 114.335 67.5891 111.859 71.8776L81.5481 124.378H117.994Z"/>
</mask>
<path fill-rule="evenodd" clip-rule="evenodd" d="M38.8421 47.5089L114.384 15.7609C119.887 13.413 126.363 13.413 131.866 15.7609L207.408 47.5089C215.178 50.7755 220.25 58.1255 220.25 66.1901V114.169C220.25 170.826 178.81 223.807 123.125 236.669C67.44 223.807 26 170.826 26 114.169V66.1901C26 58.1255 31.0721 50.7755 38.8421 47.5089ZM127.254 124.276H123.125V107.454C125.759 107.647 128.31 109.113 129.681 111.853L130.584 113.657C132.614 117.714 130.846 122.319 127.254 124.276ZM162.896 124.276L132.644 71.8776C130.501 68.1661 126.867 66.1765 123.125 65.9088V34.4422L47.5833 66.1901V124.378H81.5481L65.2506 152.606C60.6318 160.606 66.4053 170.606 75.6429 170.606H83.3507C87.6379 170.606 91.5994 168.319 93.743 164.606L101.643 150.922C103.787 147.21 107.748 144.922 112.035 144.922H123.125V215.538C163.27 203.798 192.947 166.334 198.667 124.276H162.896ZM123.125 125.237H123.43C124.841 125.237 126.136 124.884 127.254 124.276H162.896L179.252 152.606C183.871 160.606 178.097 170.606 168.86 170.606H161.67C157.383 170.606 153.421 168.319 151.278 164.606L143.378 150.922C141.234 147.21 137.273 144.922 132.985 144.922H123.125V125.237ZM123.125 125.237H121.624C120.293 125.237 119.066 124.924 117.994 124.378H123.125V125.237ZM117.994 124.378C114.272 122.483 112.403 117.786 114.469 113.657L115.372 111.853C116.95 108.699 120.093 107.233 123.125 107.454V65.9088C118.802 65.5995 114.335 67.5891 111.859 71.8776L81.5481 124.378H117.994Z" fill="#333333"/>
<path d="M114.384 15.7609L114.771 16.6828L114.776 16.6807L114.384 15.7609ZM38.8421 47.5089L38.4546 46.587L38.4545 46.587L38.8421 47.5089ZM131.866 15.7609L131.474 16.6808L131.479 16.6828L131.866 15.7609ZM207.408 47.5089L207.795 46.587L207.795 46.587L207.408 47.5089ZM123.125 236.669L122.9 237.644L123.125 237.696L123.35 237.644L123.125 236.669ZM123.125 124.276H122.125V125.276H123.125V124.276ZM129.681 111.853L130.575 111.405L129.681 111.853ZM130.584 113.657L129.69 114.105L130.584 113.657ZM132.644 71.8776L133.51 71.3776L132.644 71.8776ZM123.125 34.4422H124.125V32.9372L122.738 33.5203L123.125 34.4422ZM47.5833 66.1901L47.1959 65.2682L46.5833 65.5257V66.1901H47.5833ZM47.5833 124.378H46.5833V125.378H47.5833V124.378ZM65.2506 152.606L64.3846 152.106L65.2506 152.606ZM93.743 164.606L94.6091 165.106L93.743 164.606ZM101.643 150.922L102.509 151.422L101.643 150.922ZM123.125 215.538H122.125V216.872L123.406 216.498L123.125 215.538ZM198.667 124.276L199.658 124.41L199.812 123.276H198.667V124.276ZM179.252 152.606L178.386 153.106L179.252 152.606ZM151.278 164.606L152.144 164.106L151.278 164.606ZM143.378 150.922L142.512 151.422L143.378 150.922ZM123.125 124.378H124.125V123.378H123.125V124.378ZM114.469 113.657L113.575 113.21L114.469 113.657ZM115.372 111.853L116.267 112.3L115.372 111.853ZM111.859 71.8776L112.725 72.3776L111.859 71.8776ZM113.996 14.839L38.4546 46.587L39.2295 48.4307L114.771 16.6828L113.996 14.839ZM132.259 14.8411C126.504 12.3863 119.746 12.3863 113.991 14.8411L114.776 16.6807C120.029 14.4398 126.221 14.4398 131.474 16.6807L132.259 14.8411ZM207.795 46.587L132.254 14.839L131.479 16.6828L207.02 48.4307L207.795 46.587ZM221.25 66.1901C221.25 57.6971 215.912 49.9994 207.795 46.587L207.02 48.4307C214.444 51.5516 219.25 58.5539 219.25 66.1901H221.25ZM221.25 114.169V66.1901H219.25V114.169H221.25ZM123.35 237.644C179.495 224.675 221.25 171.285 221.25 114.169H219.25C219.25 170.366 178.125 222.939 122.9 235.695L123.35 237.644ZM25 114.169C25 171.285 66.7555 224.675 122.9 237.644L123.35 235.695C68.1245 222.939 27 170.366 27 114.169H25ZM25 66.1901V114.169H27V66.1901H25ZM38.4545 46.587C30.3379 49.9994 25 57.6972 25 66.1901H27C27 58.5539 31.8063 51.5516 39.2296 48.4307L38.4545 46.587ZM123.125 125.276H127.254V123.276H123.125V125.276ZM122.125 107.454V124.276H124.125V107.454H122.125ZM130.575 111.405C129.035 108.326 126.156 106.673 123.198 106.457L123.052 108.452C125.362 108.621 127.586 109.9 128.787 112.3L130.575 111.405ZM131.478 113.21L130.575 111.405L128.787 112.3L129.69 114.105L131.478 113.21ZM127.732 125.154C131.766 122.956 133.765 117.78 131.478 113.21L129.69 114.105C131.463 117.648 129.926 121.681 126.775 123.397L127.732 125.154ZM131.778 72.3776L162.03 124.776L163.762 123.776L133.51 71.3776L131.778 72.3776ZM123.054 66.9063C126.487 67.1519 129.812 68.973 131.778 72.3776L133.51 71.3776C131.19 67.3591 127.246 65.201 123.196 64.9114L123.054 66.9063ZM122.125 34.4422V65.9088H124.125V34.4422H122.125ZM47.9708 67.112L123.512 35.3641L122.738 33.5203L47.1959 65.2682L47.9708 67.112ZM48.5833 124.378V66.1901H46.5833V124.378H48.5833ZM81.5481 123.378H47.5833V125.378H81.5481V123.378ZM66.1166 153.106L82.4141 124.878L80.6821 123.878L64.3846 152.106L66.1166 153.106ZM75.6429 169.606C67.1751 169.606 61.8827 160.439 66.1166 153.106L64.3846 152.106C59.3809 160.772 65.6355 171.606 75.6429 171.606V169.606ZM83.3507 169.606H75.6429V171.606H83.3507V169.606ZM92.877 164.106C90.9121 167.509 87.2807 169.606 83.3507 169.606V171.606C87.9952 171.606 92.2868 169.128 94.6091 165.106L92.877 164.106ZM100.777 150.422L92.877 164.106L94.6091 165.106L102.509 151.422L100.777 150.422ZM112.035 143.922C107.391 143.922 103.099 146.4 100.777 150.422L102.509 151.422C104.474 148.019 108.105 145.922 112.035 145.922V143.922ZM123.125 143.922H112.035V145.922H123.125V143.922ZM124.125 215.538V144.922H122.125V215.538H124.125ZM197.676 124.141C192.004 165.849 162.572 202.961 122.844 214.578L123.406 216.498C163.968 204.636 193.89 166.819 199.658 124.41L197.676 124.141ZM162.896 125.276H198.667V123.276H162.896V125.276ZM123.125 126.237H123.43V124.237H123.125V126.237ZM123.43 126.237C125.011 126.237 126.47 125.841 127.732 125.154L126.775 123.397C125.802 123.928 124.672 124.237 123.43 124.237V126.237ZM127.254 125.276H162.896V123.276H127.254V125.276ZM162.03 124.776L178.386 153.106L180.118 152.106L163.762 123.776L162.03 124.776ZM178.386 153.106C182.62 160.439 177.327 169.606 168.86 169.606V171.606C178.867 171.606 185.122 160.772 180.118 152.106L178.386 153.106ZM168.86 169.606H161.67V171.606H168.86V169.606ZM161.67 169.606C157.74 169.606 154.109 167.509 152.144 164.106L150.412 165.106C152.734 169.128 157.026 171.606 161.67 171.606V169.606ZM152.144 164.106L144.244 150.422L142.512 151.422L150.412 165.106L152.144 164.106ZM144.244 150.422C141.921 146.4 137.63 143.922 132.985 143.922V145.922C136.915 145.922 140.547 148.019 142.512 151.422L144.244 150.422ZM132.985 143.922H123.125V145.922H132.985V143.922ZM124.125 144.922V125.237H122.125V144.922H124.125ZM121.624 126.237H123.125V124.237H121.624V126.237ZM117.54 125.269C118.751 125.885 120.133 126.237 121.624 126.237V124.237C120.453 124.237 119.381 123.962 118.447 123.486L117.54 125.269ZM123.125 123.378H117.994V125.378H123.125V123.378ZM124.125 125.237V124.378H122.125V125.237H124.125ZM113.575 113.21C111.248 117.861 113.36 123.141 117.54 125.269L118.447 123.486C115.184 121.825 113.559 117.712 115.364 114.105L113.575 113.21ZM114.478 111.405L113.575 113.21L115.364 114.105L116.267 112.3L114.478 111.405ZM123.198 106.457C119.799 106.209 116.254 107.856 114.478 111.405L116.267 112.3C117.647 109.541 120.386 108.257 123.052 108.452L123.198 106.457ZM122.125 65.9088V107.454H124.125V65.9088H122.125ZM112.725 72.3776C114.994 68.447 119.081 66.6221 123.054 66.9063L123.196 64.9114C118.522 64.577 113.676 66.7313 110.993 71.3776L112.725 72.3776ZM82.4141 124.878L112.725 72.3776L110.993 71.3776L80.6821 123.878L82.4141 124.878ZM117.994 123.378H81.5481V125.378H117.994V123.378Z" fill="#333333" mask="url(#path-1-inside-1_5_155)"/>
</svg>
